<svg id="Layer_1" data-name="Layer 1" xmlns="http://www.w3.org/2000/svg" viewBox="0 0 168.96 141.28"><defs><style>.cls-1{fill:#e82b35;fill-rule:evenodd;}</style></defs><title>logo</title><path class="cls-1" d="M22.61,134.43h6.72v1L17.72,161.82h-3L3,135.47v-1H9.75l6.41,15.32h.2l6.25-15.32Zm20.83,6h3.21v-6H33.32v6h3.2v15H33v6.07H46.91v-6.07H43.44v-15Zm16,11.53V134.43h-7v27.08h17v-6.23H59.47V152Zm32.09-4.31L77.73,134.32h0v-.07H71.5v5.93h3.69v21.34h7.23V148.21l13.79,13.31h2.5V134.43H91.56v13.25Zm23.22-7.22H118v-6H104.67v6h3.2v15h-3.48v6.07h13.87v-6.07h-3.48v-15Zm23.77-6v18a2.91,2.91,0,0,1-.36,1.44,3,3,0,0,1-1,1,4.33,4.33,0,0,1-1.33.61,5.34,5.34,0,0,1-1.51.21,5.41,5.41,0,0,1-1.51-.21,4.4,4.4,0,0,1-1.34-.61,3.07,3.07,0,0,1-1-1,2.89,2.89,0,0,1-.36-1.44v-18h-6.68V152.5a8.93,8.93,0,0,0,.59,3.26,8.57,8.57,0,0,0,1.62,2.62,9.79,9.79,0,0,0,2.41,1.93,11.8,11.8,0,0,0,3,1.19,13.39,13.39,0,0,0,6.56,0,11.65,11.65,0,0,0,3-1.19,9.66,9.66,0,0,0,2.4-1.93,8.58,8.58,0,0,0,1.6-2.62,9,9,0,0,0,.58-3.26V134.43h-6.68Zm32.85,15.76a5.8,5.8,0,0,0-1.63-2.24,7.81,7.81,0,0,0-2.4-1.36,16.24,16.24,0,0,0-2.92-.75q-1.56-.25-3.2-.42c-.62-.07-1.2-.15-1.74-.26a5.81,5.81,0,0,1-1.42-.44,2.21,2.21,0,0,1-.92-.78,2.18,2.18,0,0,1,.23-2.45,3.15,3.15,0,0,1,1.11-.82,5.22,5.22,0,0,1,1.47-.43,6.4,6.4,0,0,1,1.59,0,4.92,4.92,0,0,1,1.45.4,2.73,2.73,0,0,1,1.06.85,2.18,2.18,0,0,1,.4,1.3h6.64a8.13,8.13,0,0,0-.68-3.46,7.8,7.8,0,0,0-1.91-2.6,9.84,9.84,0,0,0-2.8-1.73,12.74,12.74,0,0,0-3.32-.86,13.85,13.85,0,0,0-3.5,0,12.68,12.68,0,0,0-3.31.86,9.81,9.81,0,0,0-2.79,1.73,7.72,7.72,0,0,0-1.9,2.6,8.15,8.15,0,0,0-.65,3.46,9.12,9.12,0,0,0,.75,3.72,6.31,6.31,0,0,0,2,2.48,9.45,9.45,0,0,0,3.11,1.46,20.52,20.52,0,0,0,4,.65c.69,0,1.33.1,1.93.19a7.23,7.23,0,0,1,1.59.4,2.61,2.61,0,0,1,1.08.72,1.79,1.79,0,0,1,.4,1.17,1.65,1.65,0,0,1-.48,1.16,3.13,3.13,0,0,1-1.22.77,6.71,6.71,0,0,1-1.67.37,8.64,8.64,0,0,1-1.83,0,6.38,6.38,0,0,1-1.67-.45,3.4,3.4,0,0,1-1.22-.85,1.9,1.9,0,0,1-.48-1.27h-6.76a8.11,8.11,0,0,0,.72,3.53,7.88,7.88,0,0,0,2,2.63,10.28,10.28,0,0,0,2.94,1.75A14,14,0,0,0,159,162a16.12,16.12,0,0,0,3.68,0,14.63,14.63,0,0,0,3.5-.85,10.75,10.75,0,0,0,3-1.7,7.74,7.74,0,0,0,2-2.54,7.61,7.61,0,0,0,.76-3.37,9,9,0,0,0-.59-3.39Z" transform="translate(-3.04 -20.87)"/><path class="cls-1" d="M105,30.22,99.74,29l-.34-8.14H75.94L75.6,29l-5.29,1.2-1.74-8.07L51.41,27.93l-9.14,71,28,16.77,16.7,0h1.39l16.7,0,28-16.77-9.14-71-17.16-5.79L105,30.22Zm-17.35-.75h5.17l0,7.48,16.46,3.62L111,33.09l4.2,1.24,7.05,58.38-20.07,12.06-13.83-.06H87l-13.82.06L53.08,92.71l7.05-58.38,4.2-1.24L66,40.58,82.46,37l0-7.48Z" transform="translate(-3.04 -20.87)"/></svg>